<svg width="181" height="57" viewBox="0 0 181 57" fill="none" xmlns="http://www.w3.org/2000/svg">
<path d="M43.4492 53.5884H39.4762C37.1074 53.5884 35.1797 51.6641 35.1797 49.2981V42.9543C35.1797 42.0394 35.9221 41.2981 36.8383 41.2981C37.7544 41.2981 38.4968 42.0394 38.4968 42.9543V49.2981C38.4968 49.8373 38.9362 50.2755 39.4756 50.2755H43.4486C44.3647 50.2755 45.1072 51.0168 45.1072 51.9317C45.1072 52.8465 44.3647 53.5879 43.4486 53.5879L43.4492 53.5884Z" fill="black"/>
<path d="M43.4492 53.5884H39.4762C37.1074 53.5884 35.1797 51.6641 35.1797 49.2981V42.9543C35.1797 42.0394 35.9221 41.2981 36.8383 41.2981C37.7544 41.2981 38.4968 42.0394 38.4968 42.9543V49.2981C38.4968 49.8373 38.9362 50.2755 39.4756 50.2755H43.4486C44.3647 50.2755 45.1072 51.0168 45.1072 51.9317C45.1072 52.8465 44.3647 53.5879 43.4486 53.5879L43.4492 53.5884Z" fill="black"/>
<path d="M70.9753 42.9793V51.9555C70.9753 52.8715 70.2312 53.6123 69.3156 53.6123C68.4 53.6123 67.6564 52.8715 67.6564 51.9555V49.17H63.6191V51.9555C63.6191 52.8715 62.8749 53.6123 61.9599 53.6123C61.0449 53.6123 60.3008 52.8715 60.3008 51.9555V42.9793C60.3008 42.0633 61.0426 41.3225 61.9599 41.3225C62.8773 41.3225 63.6191 42.0633 63.6191 42.9793V45.8588H67.6564V42.9793C67.6564 42.0633 68.3983 41.3225 69.3156 41.3225C70.2329 41.3225 70.9753 42.0633 70.9753 42.9793Z" fill="black"/>
<path d="M70.9753 42.9793V51.9555C70.9753 52.8715 70.2312 53.6123 69.3156 53.6123C68.4 53.6123 67.6564 52.8715 67.6564 51.9555V49.17H63.6191V51.9555C63.6191 52.8715 62.8749 53.6123 61.9599 53.6123C61.0449 53.6123 60.3008 52.8715 60.3008 51.9555V42.9793C60.3008 42.0633 61.0426 41.3225 61.9599 41.3225C62.8773 41.3225 63.6191 42.0633 63.6191 42.9793V45.8588H67.6564V42.9793C67.6564 42.0633 68.3983 41.3225 69.3156 41.3225C70.2329 41.3225 70.9753 42.0633 70.9753 42.9793Z" fill="black"/>
<path d="M52.1004 53.9242C48.6007 53.9242 45.7539 51.0815 45.7539 47.5868C45.7539 44.0921 48.6007 41.25 52.1004 41.25C55.6001 41.25 58.4468 44.0927 58.4468 47.5874C58.4468 51.082 55.6001 53.9242 52.1004 53.9242ZM52.1004 44.5624C50.4301 44.5624 49.0716 45.9189 49.0716 47.5868C49.0716 49.2547 50.4301 50.6112 52.1004 50.6112C53.7706 50.6112 55.1291 49.2547 55.1291 47.5868C55.1291 45.9189 53.7706 44.5624 52.1004 44.5624Z" fill="black"/>
<path d="M52.1004 53.9242C48.6007 53.9242 45.7539 51.0815 45.7539 47.5868C45.7539 44.0921 48.6007 41.25 52.1004 41.25C55.6001 41.25 58.4468 44.0927 58.4468 47.5874C58.4468 51.082 55.6001 53.9242 52.1004 53.9242ZM52.1004 44.5624C50.4301 44.5624 49.0716 45.9189 49.0716 47.5868C49.0716 49.2547 50.4301 50.6112 52.1004 50.6112C53.7706 50.6112 55.1291 49.2547 55.1291 47.5868C55.1291 45.9189 53.7706 44.5624 52.1004 44.5624Z" fill="black"/>
<path d="M83.2214 51.2538L79.5878 42.6211C79.3766 42.1204 78.9501 41.7267 78.4201 41.6058C77.6098 41.42 76.8176 41.847 76.5105 42.5767L72.833 51.3145C72.5311 52.0314 72.7692 52.8615 73.4057 53.3102C73.6936 53.5129 74.0282 53.6128 74.3617 53.6128C74.7648 53.6128 75.1661 53.4667 75.4808 53.1793L76.5719 52.1838C77.3962 51.4314 78.6588 51.4279 79.4872 52.1757L80.6063 53.1851C81.2347 53.7524 82.2017 53.7612 82.8435 53.1735C83.3695 52.6915 83.4976 51.911 83.2214 51.2538ZM79.3087 48.1318C79.3087 48.4584 79.0437 48.7236 78.7161 48.7236H77.3688C77.0417 48.7236 76.7761 48.459 76.7761 48.1318V46.7864C76.7761 46.4599 77.0411 46.1946 77.3688 46.1946H78.7161C79.0431 46.1946 79.3087 46.4593 79.3087 46.7864V48.1318Z" fill="black"/>
<path d="M83.2214 51.2538L79.5878 42.6211C79.3766 42.1204 78.9501 41.7267 78.4201 41.6058C77.6098 41.42 76.8176 41.847 76.5105 42.5767L72.833 51.3145C72.5311 52.0314 72.7692 52.8615 73.4057 53.3102C73.6936 53.5129 74.0282 53.6128 74.3617 53.6128C74.7648 53.6128 75.1661 53.4667 75.4808 53.1793L76.5719 52.1838C77.3962 51.4314 78.6588 51.4279 79.4872 52.1757L80.6063 53.1851C81.2347 53.7524 82.2017 53.7612 82.8435 53.1735C83.3695 52.6915 83.4976 51.911 83.2214 51.2538ZM79.3087 48.1318C79.3087 48.4584 79.0437 48.7236 78.7161 48.7236H77.3688C77.0417 48.7236 76.7761 48.459 76.7761 48.1318V46.7864C76.7761 46.4599 77.0411 46.1946 77.3688 46.1946H78.7161C79.0431 46.1946 79.3087 46.4593 79.3087 46.7864V48.1318Z" fill="black"/>
<path d="M33.5821 51.314L29.9268 42.6305C29.7244 42.1497 29.3277 41.7595 28.824 41.6222C27.9903 41.3955 27.1613 41.8255 26.8454 42.5762L23.2018 51.2334C22.8953 51.9625 23.0854 52.8388 23.7283 53.3009C24.0191 53.51 24.3584 53.6128 24.6966 53.6128C25.0997 53.6128 25.501 53.4668 25.8158 53.1794L26.7799 52.2996C27.6762 51.4817 29.0481 51.4782 29.949 52.2908L30.8921 53.1414C31.3847 53.5854 32.0973 53.7449 32.7051 53.4802C33.5645 53.1058 33.9273 52.136 33.5815 51.3146L33.5821 51.314ZM29.6442 48.1313C29.6442 48.4579 29.3792 48.7231 29.0516 48.7231H27.7042C27.3772 48.7231 27.1116 48.4585 27.1116 48.1313V46.7859C27.1116 46.4593 27.3766 46.1941 27.7042 46.1941H29.0516C29.3786 46.1941 29.6442 46.4588 29.6442 46.7859V48.1313Z" fill="black"/>
<path d="M33.5821 51.314L29.9268 42.6305C29.7244 42.1497 29.3277 41.7595 28.824 41.6222C27.9903 41.3955 27.1613 41.8255 26.8454 42.5762L23.2018 51.2334C22.8953 51.9625 23.0854 52.8388 23.7283 53.3009C24.0191 53.51 24.3584 53.6128 24.6966 53.6128C25.0997 53.6128 25.501 53.4668 25.8158 53.1794L26.7799 52.2996C27.6762 51.4817 29.0481 51.4782 29.949 52.2908L30.8921 53.1414C31.3847 53.5854 32.0973 53.7449 32.7051 53.4802C33.5645 53.1058 33.9273 52.136 33.5815 51.3146L33.5821 51.314ZM29.6442 48.1313C29.6442 48.4579 29.3792 48.7231 29.0516 48.7231H27.7042C27.3772 48.7231 27.1116 48.4585 27.1116 48.1313V46.7859C27.1116 46.4593 27.3766 46.1941 27.7042 46.1941H29.0516C29.3786 46.1941 29.6442 46.4588 29.6442 46.7859V48.1313Z" fill="black"/>
<path d="M62.2807 27.7676L51.968 3.62127C51.397 2.28486 50.2787 1.19879 48.8572 0.818228C46.5043 0.187322 44.1663 1.38339 43.2753 3.47081L32.9942 27.5426C32.1289 29.5693 32.6653 32.007 34.4792 33.2909C35.3001 33.8719 36.2579 34.1582 37.2117 34.1582C38.3487 34.1582 39.4811 33.7518 40.3688 32.9527L43.0897 30.5062C45.6186 28.2323 49.4893 28.2222 52.031 30.4822L54.6922 32.8484C56.0815 34.0836 58.0914 34.5268 59.8077 33.7897C62.2319 32.7491 63.2558 30.0517 62.2807 27.7676ZM51.1709 18.9179C51.1709 19.8263 50.4226 20.5628 49.4995 20.5628H45.6989C44.7758 20.5628 44.0275 19.8263 44.0275 18.9179V15.1773C44.0275 14.2689 44.7758 13.5324 45.6989 13.5324H49.4995C50.4226 13.5324 51.1709 14.2689 51.1709 15.1773V18.9179Z" fill="#A26BFC"/>
<path d="M9.35753 21.7644V22.2473C9.35753 23.7468 10.5985 24.9663 12.1202 24.9663H23.3315C25.9143 24.9663 28.0102 27.0272 28.0102 29.571C28.0102 32.1149 25.9137 34.1757 23.3315 34.1757V34.1783H12.1202C5.43608 34.1783 0 28.8257 0 22.2473V11.9309C0 5.35258 5.43608 0 12.1202 0H23.3315C25.9143 0 28.0102 2.0634 28.0102 4.60726C28.0102 7.15111 25.9137 9.21199 23.3315 9.21199H12.1202C10.5985 9.21199 9.35753 10.4308 9.35753 11.9309V12.5498H23.3289C25.9162 12.5498 28.0102 14.6082 28.0102 17.1571C28.0102 19.706 25.9162 21.7644 23.3289 21.7644H9.35753Z" fill="#A26BFC"/>
<path d="M84.9292 0.324951H73.4867C70.9051 0.324951 68.8047 2.38519 68.8047 4.93284V29.4724C68.8047 32.0593 70.9559 34.2516 73.583 34.1992C76.1266 34.1486 78.168 32.1079 78.168 29.5925V27.268C78.168 26.0935 79.1353 25.1414 80.3288 25.1414C80.9018 25.1414 81.4516 25.3652 81.8569 25.7641L83.3028 27.1871L88.9695 32.7641C90.8277 34.593 93.9238 34.6467 95.7442 32.7812C97.5067 30.9751 97.4836 28.112 95.6761 26.3331L93.1453 23.8423C92.6057 23.3113 92.623 22.4477 93.1819 21.9357C95.5592 19.7572 97.0487 16.6533 97.0487 13.2111V12.7332V12.2546C97.0487 5.66616 91.6217 0.324951 84.9273 0.324951H84.9292ZM85.312 14.8737C85.312 15.7821 84.5637 16.5186 83.6407 16.5186H79.84C78.9169 16.5186 78.1686 15.7821 78.1686 14.8737V11.1332C78.1686 10.2247 78.9169 9.48826 79.84 9.48826H83.6407C84.5637 9.48826 85.312 10.2247 85.312 11.1332V14.8737Z" fill="#A26BFC"/>
<path d="M131.484 0.799927C132.745 0.799927 133.813 1.23414 134.688 2.10258C135.564 2.93628 136.002 3.9784 136.002 5.22894V29.6667C136.002 30.6046 135.721 31.4556 135.161 32.2199C134.636 32.9494 133.97 33.4878 133.165 33.8352C132.569 34.0783 132.027 34.1999 131.536 34.1999C130.205 34.1999 129.085 33.6094 128.174 32.4283L120.678 24.2364C118.214 21.5438 113.727 23.287 113.727 26.9367V29.6667C113.727 30.9172 113.272 31.9767 112.361 32.8451C111.485 33.7136 110.417 34.1478 109.156 34.1478C107.896 34.1478 106.81 33.7136 105.899 32.8451C105.024 31.9767 104.586 30.9172 104.586 29.6667V5.38526C104.586 4.37787 104.831 3.50944 105.321 2.77996C105.847 2.01574 106.512 1.47731 107.318 1.16467C107.843 0.921508 108.438 0.799927 109.104 0.799927C110.54 0.799927 111.748 1.35572 112.729 2.46732L119.902 10.3494C122.363 13.0525 126.861 11.3121 126.861 7.65707V5.22894C126.861 3.9784 127.316 2.93628 128.227 2.10258C129.137 1.23414 130.223 0.799927 131.484 0.799927Z" fill="#A26BFC"/>
<path d="M4.91784 53.8846C4.321 53.8846 3.78471 53.7505 3.30897 53.4824C2.83323 53.2056 2.45696 52.8077 2.18017 52.2887C1.90338 51.7697 1.76498 51.1426 1.76498 50.4073C1.76498 49.6635 1.90338 49.0364 2.18017 48.526C2.46561 48.007 2.84621 47.6135 3.32195 47.3453C3.79769 47.0772 4.32965 46.9431 4.91784 46.9431C5.56657 46.9431 6.14611 47.0901 6.65645 47.3842C7.17544 47.6697 7.58198 48.0719 7.87608 48.5909C8.17017 49.1099 8.31722 49.7154 8.31722 50.4073C8.31722 51.0907 8.17017 51.6962 7.87608 52.2238C7.58198 52.7428 7.17544 53.1493 6.65645 53.4434C6.14611 53.7375 5.56657 53.8846 4.91784 53.8846ZM1.40169 53.8197V44.1925H2.32289V49.0191L2.19314 50.3944L2.28397 51.7697V53.8197H1.40169ZM4.85296 53.0672C5.33735 53.0672 5.76984 52.959 6.15044 52.7428C6.53103 52.5179 6.83377 52.2065 7.05867 51.8086C7.28356 51.4021 7.39601 50.935 7.39601 50.4073C7.39601 49.8711 7.28356 49.404 7.05867 49.0061C6.83377 48.6082 6.53103 48.3011 6.15044 48.0849C5.76984 47.86 5.33735 47.7475 4.85296 47.7475C4.36857 47.7475 3.93176 47.86 3.54252 48.0849C3.16192 48.3011 2.85918 48.6082 2.63428 49.0061C2.41804 49.404 2.30992 49.8711 2.30992 50.4073C2.30992 50.935 2.41804 51.4021 2.63428 51.8086C2.85918 52.2065 3.16192 52.5179 3.54252 52.7428C3.93176 52.959 4.36857 53.0672 4.85296 53.0672ZM11.8734 56.4017C11.5534 56.4017 11.2463 56.3498 10.9522 56.246C10.6668 56.1422 10.4202 55.9865 10.2126 55.7789L10.6408 55.0912C10.8138 55.2556 10.9998 55.381 11.1987 55.4675C11.4063 55.5626 11.6355 55.6102 11.8864 55.6102C12.1891 55.6102 12.4486 55.5237 12.6649 55.3507C12.8898 55.1864 13.1017 54.8923 13.3006 54.4684L13.7418 53.4694L13.8456 53.3267L16.6481 47.008H17.5563L14.144 54.6371C13.9537 55.0783 13.7418 55.4286 13.5082 55.6881C13.2833 55.9476 13.0368 56.1292 12.7687 56.233C12.5005 56.3454 12.2021 56.4017 11.8734 56.4017ZM13.6899 54.0143L10.55 47.008H11.5101L14.2867 53.2618L13.6899 54.0143Z" fill="black"/>
<path d="M89.0835 54.5883V45.3236H92.4055C93.182 45.3236 93.8482 45.4471 94.404 45.6941C94.9599 45.9412 95.3879 46.2986 95.6879 46.7662C95.9879 47.225 96.1379 47.7853 96.1379 48.4471C96.1379 49.0912 95.9879 49.6471 95.6879 50.1147C95.3879 50.5824 94.9599 50.9397 94.404 51.1868C93.8482 51.4338 93.182 51.5574 92.4055 51.5574H89.454L89.7585 51.2397V54.5883H89.0835ZM89.7585 51.2794L89.454 50.9486H92.4055C93.4026 50.9486 94.157 50.7324 94.6688 50.3C95.1893 49.8588 95.4496 49.2412 95.4496 48.4471C95.4496 47.6441 95.1893 47.0265 94.6688 46.5941C94.157 46.153 93.4026 45.9324 92.4055 45.9324H89.454L89.7585 45.6015V51.2794ZM100.268 54.5883V45.3236H103.59C104.367 45.3236 105.033 45.4471 105.589 45.6941C106.145 45.9412 106.573 46.2986 106.873 46.7662C107.173 47.225 107.323 47.7853 107.323 48.4471C107.323 49.0912 107.173 49.6471 106.873 50.1147C106.573 50.5736 106.145 50.9309 105.589 51.1868C105.033 51.4338 104.367 51.5574 103.59 51.5574H100.639L100.943 51.2397V54.5883H100.268ZM106.701 54.5883L104.292 51.2265H105.059L107.468 54.5883H106.701ZM100.943 51.2794L100.639 50.9618H103.59C104.587 50.9618 105.342 50.7412 105.854 50.3C106.374 49.8588 106.634 49.2412 106.634 48.4471C106.634 47.6441 106.374 47.0265 105.854 46.5941C105.342 46.153 104.587 45.9324 103.59 45.9324H100.639L100.943 45.6015V51.2794ZM115.578 54.6544C114.89 54.6544 114.25 54.5397 113.659 54.3103C113.076 54.0721 112.565 53.7412 112.124 53.3177C111.691 52.8853 111.356 52.3868 111.118 51.8221C110.879 51.2486 110.76 50.6265 110.76 49.9559C110.76 49.2853 110.879 48.6677 111.118 48.103C111.356 47.5294 111.691 47.0309 112.124 46.6074C112.565 46.175 113.076 45.8441 113.659 45.6147C114.25 45.3765 114.89 45.2574 115.578 45.2574C116.266 45.2574 116.901 45.3765 117.484 45.6147C118.075 45.8441 118.587 46.1706 119.019 46.5941C119.451 47.0177 119.787 47.5162 120.025 48.0897C120.272 48.6544 120.396 49.2765 120.396 49.9559C120.396 50.6353 120.272 51.2618 120.025 51.8353C119.787 52.4 119.451 52.8941 119.019 53.3177C118.587 53.7412 118.075 54.0721 117.484 54.3103C116.901 54.5397 116.266 54.6544 115.578 54.6544ZM115.578 54.0324C116.169 54.0324 116.716 53.9309 117.219 53.728C117.722 53.525 118.159 53.2383 118.529 52.8677C118.9 52.4971 119.187 52.0647 119.39 51.5706C119.601 51.0765 119.707 50.5383 119.707 49.9559C119.707 49.3647 119.601 48.8265 119.39 48.3412C119.187 47.8471 118.9 47.4147 118.529 47.0441C118.159 46.6736 117.722 46.3868 117.219 46.1838C116.716 45.9809 116.169 45.8794 115.578 45.8794C114.987 45.8794 114.44 45.9809 113.937 46.1838C113.434 46.3868 112.993 46.6736 112.613 47.0441C112.243 47.4147 111.951 47.8471 111.74 48.3412C111.537 48.8265 111.435 49.3647 111.435 49.9559C111.435 50.5383 111.537 51.0765 111.74 51.5706C111.951 52.0647 112.243 52.4971 112.613 52.8677C112.993 53.2383 113.434 53.525 113.937 53.728C114.44 53.9309 114.987 54.0324 115.578 54.0324ZM126.234 54.5883V45.9324H122.899V45.3236H130.244V45.9324H126.909V54.5883H126.234ZM137.573 54.6544C136.885 54.6544 136.245 54.5397 135.654 54.3103C135.071 54.0721 134.56 53.7412 134.118 53.3177C133.686 52.8853 133.351 52.3868 133.113 51.8221C132.874 51.2486 132.755 50.6265 132.755 49.9559C132.755 49.2853 132.874 48.6677 133.113 48.103C133.351 47.5294 133.686 47.0309 134.118 46.6074C134.56 46.175 135.071 45.8441 135.654 45.6147C136.245 45.3765 136.885 45.2574 137.573 45.2574C138.261 45.2574 138.896 45.3765 139.479 45.6147C140.07 45.8441 140.582 46.1706 141.014 46.5941C141.446 47.0177 141.782 47.5162 142.02 48.0897C142.267 48.6544 142.39 49.2765 142.39 49.9559C142.39 50.6353 142.267 51.2618 142.02 51.8353C141.782 52.4 141.446 52.8941 141.014 53.3177C140.582 53.7412 140.07 54.0721 139.479 54.3103C138.896 54.5397 138.261 54.6544 137.573 54.6544ZM137.573 54.0324C138.164 54.0324 138.711 53.9309 139.214 53.728C139.717 53.525 140.154 53.2383 140.524 52.8677C140.895 52.4971 141.182 52.0647 141.385 51.5706C141.596 51.0765 141.702 50.5383 141.702 49.9559C141.702 49.3647 141.596 48.8265 141.385 48.3412C141.182 47.8471 140.895 47.4147 140.524 47.0441C140.154 46.6736 139.717 46.3868 139.214 46.1838C138.711 45.9809 138.164 45.8794 137.573 45.8794C136.982 45.8794 136.435 45.9809 135.932 46.1838C135.429 46.3868 134.988 46.6736 134.608 47.0441C134.238 47.4147 133.946 47.8471 133.735 48.3412C133.532 48.8265 133.43 49.3647 133.43 49.9559C133.43 50.5383 133.532 51.0765 133.735 51.5706C133.946 52.0647 134.238 52.4971 134.608 52.8677C134.988 53.2383 135.429 53.525 135.932 53.728C136.435 53.9309 136.982 54.0324 137.573 54.0324ZM150.502 54.6544C149.814 54.6544 149.174 54.5397 148.583 54.3103C148.001 54.0721 147.493 53.7412 147.061 53.3177C146.629 52.8941 146.293 52.4 146.055 51.8353C145.817 51.2618 145.698 50.6353 145.698 49.9559C145.698 49.2765 145.817 48.6544 146.055 48.0897C146.293 47.5162 146.629 47.0177 147.061 46.5941C147.502 46.1706 148.014 45.8441 148.596 45.6147C149.179 45.3765 149.814 45.2574 150.502 45.2574C151.155 45.2574 151.764 45.3633 152.329 45.575C152.902 45.7868 153.392 46.1088 153.798 46.5412L153.374 46.978C152.977 46.5897 152.536 46.3118 152.051 46.1441C151.574 45.9677 151.067 45.8794 150.529 45.8794C149.938 45.8794 149.386 45.9809 148.874 46.1838C148.371 46.3868 147.93 46.6736 147.551 47.0441C147.18 47.4147 146.889 47.8471 146.677 48.3412C146.474 48.8353 146.373 49.3736 146.373 49.9559C146.373 50.5383 146.474 51.0765 146.677 51.5706C146.889 52.0647 147.18 52.4971 147.551 52.8677C147.93 53.2383 148.371 53.525 148.874 53.728C149.386 53.9309 149.938 54.0324 150.529 54.0324C151.067 54.0324 151.574 53.9486 152.051 53.7809C152.536 53.6044 152.977 53.3177 153.374 52.9206L153.798 53.3574C153.392 53.7897 152.902 54.1162 152.329 54.3368C151.764 54.5486 151.155 54.6544 150.502 54.6544ZM161.649 54.6544C160.96 54.6544 160.321 54.5397 159.73 54.3103C159.147 54.0721 158.635 53.7412 158.194 53.3177C157.762 52.8853 157.427 52.3868 157.188 51.8221C156.95 51.2486 156.831 50.6265 156.831 49.9559C156.831 49.2853 156.95 48.6677 157.188 48.103C157.427 47.5294 157.762 47.0309 158.194 46.6074C158.635 46.175 159.147 45.8441 159.73 45.6147C160.321 45.3765 160.96 45.2574 161.649 45.2574C162.337 45.2574 162.972 45.3765 163.555 45.6147C164.146 45.8441 164.657 46.1706 165.09 46.5941C165.522 47.0177 165.857 47.5162 166.096 48.0897C166.343 48.6544 166.466 49.2765 166.466 49.9559C166.466 50.6353 166.343 51.2618 166.096 51.8353C165.857 52.4 165.522 52.8941 165.09 53.3177C164.657 53.7412 164.146 54.0721 163.555 54.3103C162.972 54.5397 162.337 54.6544 161.649 54.6544ZM161.649 54.0324C162.24 54.0324 162.787 53.9309 163.29 53.728C163.793 53.525 164.23 53.2383 164.6 52.8677C164.971 52.4971 165.257 52.0647 165.46 51.5706C165.672 51.0765 165.778 50.5383 165.778 49.9559C165.778 49.3647 165.672 48.8265 165.46 48.3412C165.257 47.8471 164.971 47.4147 164.6 47.0441C164.23 46.6736 163.793 46.3868 163.29 46.1838C162.787 45.9809 162.24 45.8794 161.649 45.8794C161.057 45.8794 160.51 45.9809 160.007 46.1838C159.505 46.3868 159.063 46.6736 158.684 47.0441C158.313 47.4147 158.022 47.8471 157.81 48.3412C157.607 48.8265 157.506 49.3647 157.506 49.9559C157.506 50.5383 157.607 51.0765 157.81 51.5706C158.022 52.0647 158.313 52.4971 158.684 52.8677C159.063 53.2383 159.505 53.525 160.007 53.728C160.51 53.9309 161.057 54.0324 161.649 54.0324ZM170.66 54.5883V45.3236H171.335V53.9794H176.669V54.5883H170.66Z" fill="black"/>
</svg>
